# xmcd CD database file
#
# Track frame offsets:
#	150
#	38002
#	69275
#	88775
#	99575
#	132200
#	166025
#
# Disc length: 2573 seconds
#
# Revision: 1
# Processed by: cddbd v1.5.1PL0 Copyright (c) Steve Scherf et al.
# Submitted via: CDex 1.50
#
DISCID=4d0a0b07
DTITLE=THE PAT BROTHERS - No.1
DYEAR=1986
DGENRE=Jazz
TTITLE0=Three short stories of a great politicion
TTITLE1=The window of the world
TTITLE2=Hymn
TTITLE3=Alpine aspects of world music
TTITLE4=Child
TTITLE5=All i can feel is a hunger
TTITLE6=red top
EXTD=YEAR: 1986
EXTT0=
EXTT1=
EXTT2=
EXTT3=
EXTT4=
EXTT5=
EXTT6=
PLAYORDER=
